<?xml version="1.0" encoding="utf-8"?>
<svg version="1.1" id="Brush" x="0px" y="0px" enable-background="new 0 129.506 595.279 582.878" viewBox="0 0 400 400" xmlns="http://www.w3.org/2000/svg">
  <title>AEM Groovy Console Intellij Plugin Icon</title>
  <radialGradient id="SVGID_1_" cx="97.8049" cy="759.6548" r="143.7904" gradientTransform="matrix(2.525206, 0, 0, -2.578932, -25.515829, 2273.206535)" gradientUnits="userSpaceOnUse">
    <stop offset="0" style="stop-color:#3A2A1D"/>
    <stop offset="0.77" style="stop-color:#241405"/>
  </radialGradient>
  <g>
    <title>Icon</title>
    <g transform="matrix(0.719424, 0, 0, 0.719424, 0.000125, -93.169601)">
      <title>AEM</title>
      <rect y="129.506" fill="url(#SVGID_1_)" width="556" height="556" style="">
        <title>background</title>
      </rect>
      <g style="" transform="matrix(1, 0, 0, 1, 0.000001, 0.00002)">
        <title>icon</title>
        <path fill="#FF7618" d="M 22 407.506 C 22 548.891 136.615 663.506 278 663.506 C 419.386 663.506 534 548.891 534 407.506 C 534 266.121 419.386 151.506 278 151.506 C 136.615 151.506 22 266.122 22 407.506 Z M 48.406 407.506 C 48.556 280.691 151.482 178.009 278.298 178.16 C 405.112 178.311 507.794 281.237 507.644 408.052 C 507.494 534.77 404.718 637.411 278 637.398 C 151.117 637.329 48.312 534.414 48.382 407.531 C 48.382 407.523 48.382 407.514 48.382 407.506 L 48.406 407.506 Z" style="">
          <title>circle</title>
        </path>
        <path fill="#FFE0CB" d="M 277.987 255.634 C 296.298 255.652 313.011 266.054 321.109 282.471 C 316.753 285.045 312.743 288.162 309.174 291.747 C 291.957 308.958 264.042 308.958 246.825 291.747 C 243.252 288.166 239.242 285.049 234.89 282.471 C 242.976 266.054 259.683 255.65 277.987 255.634 Z M 325.748 298.469 C 325.947 300.223 326.047 301.987 326.046 303.752 C 326.087 334.648 351.139 359.681 382.044 359.708 C 383.81 359.707 385.574 359.806 387.329 360.006 C 385.948 361.907 384.422 363.698 382.764 365.363 C 359.369 388.755 359.369 426.675 382.764 450.066 C 384.422 451.74 385.95 453.541 387.329 455.449 C 385.574 455.648 383.809 455.748 382.044 455.748 C 351.152 455.773 326.112 480.795 326.071 511.678 C 326.073 513.453 325.973 515.225 325.773 516.987 C 323.862 515.598 322.063 514.065 320.388 512.399 C 296.976 489.022 259.047 489.022 235.634 512.399 C 233.961 514.065 232.16 515.598 230.25 516.987 C 230.059 515.225 229.967 513.452 229.978 511.678 C 229.922 480.801 204.891 455.787 174.004 455.748 C 172.246 455.748 170.49 455.648 168.744 455.449 C 170.121 453.545 171.648 451.754 173.308 450.092 C 196.712 426.705 196.72 388.778 173.326 365.381 C 173.32 365.376 173.314 365.37 173.308 365.364 C 171.639 363.702 170.104 361.911 168.719 360.007 C 170.473 359.807 172.238 359.708 174.003 359.709 C 204.9 359.668 229.936 334.64 229.977 303.752 C 229.968 301.987 230.059 300.224 230.249 298.469 C 232.159 299.857 233.96 301.391 235.633 303.057 C 259.028 326.454 296.966 326.462 320.37 303.074 C 320.376 303.069 320.382 303.063 320.387 303.057 C 322.058 301.396 323.849 299.862 325.748 298.469 Z M 403.209 364.645 C 427.01 376.325 436.833 405.083 425.15 428.877 C 420.466 438.414 412.75 446.129 403.209 450.811 C 400.621 446.459 397.495 442.452 393.904 438.881 C 376.705 421.672 376.705 393.784 393.904 376.575 C 397.504 372.967 400.63 368.916 403.209 364.521 L 403.209 364.645 Z M 321.109 532.885 C 309.39 556.694 280.584 566.498 256.77 554.783 C 247.251 550.099 239.549 542.4 234.866 532.885 C 239.218 530.307 243.228 527.19 246.801 523.61 C 264.024 506.413 291.927 506.413 309.151 523.61 C 312.738 527.149 316.756 530.223 321.11 532.762 L 321.11 532.885 L 321.109 532.885 Z M 152.766 450.688 C 128.964 439.006 119.141 410.249 130.825 386.455 C 135.508 376.917 143.225 369.203 152.766 364.521 C 155.35 368.869 158.466 372.877 162.045 376.451 C 179.256 393.652 179.26 421.543 162.055 438.748 C 162.051 438.75 162.048 438.754 162.045 438.756 C 158.472 442.336 155.356 446.344 152.766 450.688 Z M 277.987 567.512 C 299.285 567.496 318.733 555.414 328.18 536.334 C 358.709 549.207 393.896 534.904 406.774 504.385 C 413.06 489.487 413.063 472.682 406.781 457.781 C 434.495 444.119 445.884 410.586 432.219 382.881 C 426.771 371.836 417.829 362.898 406.781 357.452 C 419.65 326.929 405.331 291.757 374.798 278.892 C 359.894 272.612 343.082 272.614 328.18 278.899 C 314.702 251.193 281.309 239.657 253.596 253.131 C 242.36 258.593 233.284 267.667 227.819 278.899 C 197.272 266.034 162.077 280.36 149.208 310.897 C 142.935 325.781 142.931 342.564 149.193 357.451 C 121.486 371.126 110.115 404.665 123.793 432.363 C 129.236 443.388 138.164 452.312 149.193 457.756 C 136.308 488.272 150.607 523.451 181.132 536.334 C 196.049 542.627 212.877 542.627 227.794 536.334 C 237.241 555.414 256.69 567.496 277.987 567.512 Z M 333.142 521.178 C 333.692 518.008 333.966 514.797 333.961 511.58 C 333.988 485.06 355.492 463.574 382.019 463.56 C 385.246 463.566 388.467 463.29 391.646 462.742 C 401.794 484.885 392.065 511.058 369.916 521.203 C 358.249 526.547 344.833 526.547 333.167 521.203 L 333.142 521.178 Z M 391.622 352.516 C 388.45 351.967 385.238 351.693 382.019 351.698 C 355.492 351.684 333.988 330.197 333.961 303.678 C 333.958 300.46 333.675 297.248 333.117 294.079 C 355.266 283.933 381.448 293.657 391.598 315.799 C 396.937 327.445 396.945 340.837 391.621 352.49 L 391.621 352.516 L 391.622 352.516 Z M 222.906 294.054 C 222.356 297.232 222.082 300.452 222.088 303.678 C 222.033 330.21 200.495 351.686 173.955 351.673 C 170.736 351.668 167.524 351.942 164.353 352.491 C 154.204 330.348 163.934 304.174 186.084 294.03 C 197.751 288.687 211.166 288.687 222.832 294.03 L 222.906 294.054 Z M 164.427 462.717 C 167.599 463.262 170.811 463.535 174.029 463.535 C 200.55 463.562 222.047 485.041 222.088 511.555 C 222.082 514.78 222.356 518 222.906 521.178 C 200.778 531.367 174.576 521.694 164.384 499.571 C 159.001 487.887 158.989 474.436 164.353 462.743 L 164.427 462.717 Z" style="">
          <title>curves</title>
        </path>
      </g>
    </g>
    <g fill="none" fill-rule="evenodd" transform="matrix(14.285714, 0, 0, 14.285714, 185.714294, 185.714294)">
      <title>Groovy</title>
      <path fill="#62B543" d="M8,15 C4.134,15 1,11.866 1,8 C1,4.134 4.134,1 8,1 C11.866,1 15,4.134 15,8 C15,11.866 11.866,15 8,15 Z">
        <title>background</title>
      </path>
      <path fill="#231F20" fill-opacity=".7" d="M8.10388729,11 C6.28897017,11 5.0956,9.70718232 5.0956,8.01657459 L5.0956,8 C5.0956,6.37569061 6.33869392,5 8.08731271,5 C9.09836243,5 9.71990939,5.28176796 10.3165945,5.78729282 L9.67018564,6.55801105 C9.22267182,6.18508287 8.7834453,5.94475138 8.04587624,5.94475138 C6.97681547,5.94475138 6.16466077,6.87292818 6.16466077,7.98342541 L6.16466077,8 C6.16466077,9.19337017 6.95195359,10.0718232 8.13703646,10.0718232 C8.68399779,10.0718232 9.18123536,9.89779006 9.53758895,9.63259669 L9.53758895,8.55524862 L8.05416354,8.55524862 L8.05416354,7.66022099 L10.5237768,7.66022099 L10.5237768,10.0966851 C9.95195359,10.5856354 9.1315116,11 8.10388729,11 Z">
        <title>g</title>
      </path>
    </g>
  </g>
</svg>
